Patient4_TMGait_0pt4_01_right_05_GRF.mot
version=1
nRows=72
nColumns=19
inDegrees=no
endheader
time	F1x	F1y	F1z	M1x	M1y	M1z	F2x	F2y	F2z	M2x	M2y	M2z	EC1x	EC1y	EC1z	EC2x	EC2y	EC2z
6.04	-4.8948	745.832	56.4595	-272.9639	-59.8498	771.5238	-6.7205	-15.9314	-1.0209	-2.433	-2.307	-22.0888	-0.0592	0.0182	-0.0073	-0.0462	0.0165	0.9585
6.0527	-4.2639	735.5836	56.2702	-268.8182	-58.5537	760.9131	-4.6657	-10.1039	-0.6523	-1.4076	-1.5204	-14.1068	-0.0592	0.0182	-0.0073	-0.0462	0.0165	0.9585
6.0654	-3.3398	724.8494	55.8793	-264.3992	-57.0535	749.4823	-2.8798	-5.1433	-0.38599	-0.52183	-0.82161	-7.3432	-0.0592	0.0182	-0.0073	-0.0462	0.0165	0.9585
6.0781	-2.1247	714.8114	55.3562	-260.1674	-55.4574	738.4251	-1.4903	-1.3293	-0.22127	0.17194	-0.25883	-2.1643	-0.0592	0.0182	-0.0073	-0.0462	0.0165	0.9585
6.0909	-0.66062	706.6268	54.7837	-256.5753	-53.8639	728.9424	-0.51764	1.3512	-0.13787	0.67347	0.15726	1.4603	-0.0592	0.0182	-0.0073	-0.0462	0.0165	0.9585
6.1036	0.9833	701.2847	54.2524	-254.0098	-52.3708	722.0725	0.081282	3.0438	-0.1165	1.0031	0.44809	3.7401	-0.0592	0.0182	-0.0073	-0.0462	0.0165	0.9585
6.1163	2.7037	699.4922	53.8344	-252.7454	-51.0564	718.572	0.36862	3.9762	-0.13267	1.194	0.64565	4.9905	-0.0592	0.0182	-0.0073	-0.0462	0.0165	0.9585
6.129	4.4437	701.6253	53.5919	-252.9272	-49.9724	718.8318	0.43081	4.3399	-0.17252	1.2691	0.7856	5.474	-0.0592	0.0182	-0.0073	-0.0462	0.0165	0.9585
6.1417	6.1813	707.7175	53.5632	-254.5679	-49.1356	722.8922	0.31179	4.2744	-0.22531	1.2412	0.90148	5.4034	-0.0592	0.0182	-0.0073	-0.0462	0.0165	0.9585
6.1544	7.9269	717.4407	53.7794	-257.5427	-48.5485	730.4187	0.081099	3.8601	-0.29435	1.1117	1.0194	4.9001	-0.0592	0.0182	-0.0073	-0.0462	0.0165	0.9585
6.1671	9.6952	730.1451	54.2557	-261.604	-48.201	740.7566	-0.2192	3.127	-0.37483	0.87112	1.1505	4.0238	-0.0592	0.0182	-0.0073	-0.0462	0.0165	0.9585
6.1799	11.5215	744.9043	54.9983	-266.4055	-48.0756	752.9769	-0.54438	2.044	-0.45447	0.49591	1.2865	2.7449	-0.0592	0.0182	-0.0073	-0.0462	0.0165	0.9585
6.1926	13.4132	760.5828	55.989	-271.5297	-48.1439	765.9688	-0.83561	0.58929	-0.51675	-0.031291	1.4028	1.0377	-0.0592	0.0182	-0.0073	-0.0462	0.0165	0.9585
6.2053	15.3739	775.9038	57.2011	-276.5079	-48.3779	778.4866	-1.0116	-1.2444	-0.53863	-0.71542	1.4487	-1.115	-0.0592	0.0182	-0.0073	-0.0462	0.0165	0.9585
6.218	17.3745	789.5144	58.5899	-280.846	-48.7461	789.247	-0.96326	-3.3995	-0.48577	-1.5311	1.3395	-3.6482	-0.0592	0.0182	-0.0073	-0.0462	0.0165	0.9585
6.2307	19.345	800.052	60.1044	-284.0505	-49.2322	796.9953	-0.53285	-5.6496	-0.31453	-2.3897	0.96084	-6.2889	-0.0592	0.0182	-0.0073	-0.0462	0.0165	0.9585
6.2434	21.1678	806.2933	61.6553	-285.6808	-49.8051	800.6401	0.48038	-7.5629	0.029703	-3.1202	0.17115	-8.5276	-0.0592	0.0182	-0.0073	-0.0462	0.0165	0.9585
6.2561	22.7555	807.352	63.1439	-285.418	-50.4202	799.4222	2.277	-8.3848	0.617	-3.4299	-1.189	-9.4816	-0.0592	0.0182	-0.0073	-0.0462	0.0165	0.9585
6.2689	24.1	802.8164	64.4733	-283.1171	-51.0053	793.0115	5.0786	-6.9679	1.5093	-2.8767	-3.2712	-7.8362	-0.0592	0.0182	-0.0073	-0.0462	0.0165	0.9585
6.2816	25.2576	792.7848	65.6	-278.8168	-51.5162	781.5423	8.9923	-1.7707	2.7499	-0.8676	-6.1641	-1.8171	-0.0592	0.0182	-0.0073	-0.0462	0.0165	0.9585
6.2943	26.3578	777.717	66.488	-272.6913	-51.8909	765.4511	13.9471	9.0733	4.3226	3.3135	-9.8134	10.7104	-0.0592	0.0182	-0.0073	-0.0462	0.0165	0.9585
6.307	27.5224	758.2489	67.0675	-264.9818	-52.0328	745.3296	19.5369	27.5918	6.1133	10.438	-13.9234	32.0631	-0.0592	0.0182	-0.0073	-0.0462	0.0165	0.9585
6.3197	28.8439	734.9427	67.18	-255.9139	-51.7619	721.6689	24.8369	55.5101	7.8459	21.1611	-17.8194	64.2018	-0.0592	0.0182	-0.0073	-0.0462	0.0165	0.9585
6.3324	30.2992	708.0429	66.5973	-245.6099	-50.8522	694.6718	28.2123	93.5868	9.0281	35.7637	-20.3122	107.9686	-0.0592	0.0182	-0.0073	-0.0462	0.0165	0.9585
6.3451	31.7698	677.3426	65.0399	-234.0461	-49.0597	664.1027	27.4517	140.893	8.8545	53.864	-19.6601	162.2785	-0.0592	0.0182	-0.0073	-0.0462	0.0165	0.9585
6.3579	33.0288	642.287	62.2758	-221.0878	-46.2269	629.423	21.1937	194.8314	6.3804	74.3972	-14.2868	224.1899	-0.0592	0.0182	-0.0073	-0.0462	0.0165	0.9585
6.3706	33.7876	602.1778	58.1959	-206.5538	-42.3384	589.9568	10.5673	251.7593	1.0882	95.9112	-4.1161	289.472	-0.0592	0.0182	-0.0073	-0.0462	0.0165	0.9585
6.3833	33.7252	556.4248	52.9397	-190.2786	-37.6207	545.1268	-1.7877	308.5747	-6.4335	117.2233	9.1656	354.2532	-0.0592	0.0182	-0.0073	-0.0462	0.0165	0.9585
6.396	32.5529	504.8137	46.8646	-172.1947	-32.4894	494.7197	-13.7834	364.2181	-15.5072	137.9407	23.9538	417.0514	-0.0592	0.0182	-0.0073	-0.0462	0.0165	0.9585
6.4087	30.0794	447.827	40.4346	-152.4457	-27.4307	439.1854	-24.0646	419.0865	-24.889	158.2743	38.3707	478.1478	-0.0592	0.0182	-0.0073	-0.0462	0.0165	0.9585
6.4214	26.2496	386.7659	34.0856	-131.4387	-22.8669	379.7585	-32.0343	473.3477	-33.8462	178.3451	51.3413	537.7367	-0.0592	0.0182	-0.0073	-0.0462	0.0165	0.9585
6.4341	21.1812	323.7128	28.1452	-109.8437	-19.0705	318.4015	-37.5494	526.4588	-41.7367	197.9968	62.1232	595.248	-0.0592	0.0182	-0.0073	-0.0462	0.0165	0.9585
6.4469	15.1544	261.3535	22.8005	-88.5439	-16.1362	257.6741	-40.7597	577.4312	-48.6527	216.8665	70.8623	649.6773	-0.0592	0.0182	-0.0073	-0.0462	0.0165	0.9585
6.4596	8.6783	202.6483	18.1555	-68.5211	-14.0063	200.412	-42.0063	625.3438	-54.6066	234.6081	77.7465	700.1366	-0.0592	0.0182	-0.0073	-0.0462	0.0165	0.9585
6.4723	2.4787	150.204	14.2335	-50.6488	-12.4662	149.1288	-41.817	669.2572	-59.8107	250.8542	83.223	745.818	-0.0592	0.0182	-0.0073	-0.0462	0.0165	0.9585
6.485	-2.7001	105.6975	10.9857	-35.4959	-11.2122	105.4529	-40.8542	708.1449	-64.1601	265.2199	87.4721	785.8547	-0.0592	0.0182	-0.0073	-0.0462	0.0165	0.9585
6.4977	-6.323	69.7065	8.2759	-23.2655	-9.9289	69.9648	-39.8204	741.0586	-67.6886	277.3473	90.8021	819.4875	-0.0592	0.0182	-0.0073	-0.0462	0.0165	0.9585
6.5104	-8.1666	41.9636	5.9712	-13.8696	-8.4136	42.4631	-39.2227	767.3936	-70.1986	287.0213	93.2148	846.2342	-0.0592	0.0182	-0.0073	-0.0462	0.0165	0.9585
6.5231	-8.3036	21.6975	3.9795	-7.0443	-6.6042	22.2525	-39.3005	786.879	-71.6411	294.1503	94.7413	865.9016	-0.0592	0.0182	-0.0073	-0.0462	0.0165	0.9585
6.5359	-7.1935	7.9476	2.3161	-2.4505	-4.6723	8.4505	-40.0152	799.4537	-71.9315	298.7284	95.2782	878.4134	-0.0592	0.0182	-0.0073	-0.0462	0.0165	0.9585
6.5486	-5.5265	-0.40709	1.0652	0.30993	-2.9345	0.0034783	-41.1463	805.2371	-71.2065	300.8073	94.8768	883.8155	-0.0592	0.0182	-0.0073	-0.0462	0.0165	0.9585
6.5613	-3.7809	-4.6989	0.23502	1.6982	-1.5656	-4.3807	-42.3651	804.6018	-69.5824	300.5358	93.5442	882.3396	-0.0592	0.0182	-0.0073	-0.0462	0.0165	0.9585
6.574	-2.245	-6.1903	-0.26138	2.1488	-0.58349	-5.9509	-43.3543	798.331	-67.2999	298.2071	91.4144	874.6469	-0.0592	0.0182	-0.0073	-0.0462	0.0165	0.9585
6.5867	-1.0299	-5.9693	-0.49136	2.0316	0.036663	-5.8029	-43.8355	787.6284	-64.5568	294.2684	88.603	861.8632	-0.0592	0.0182	-0.0073	-0.0462	0.0165	0.9585
6.5994	-0.17104	-4.8597	-0.5559	1.6235	0.38318	-4.753	-43.6366	773.9947	-61.6169	289.2755	85.3239	845.4861	-0.0592	0.0182	-0.0073	-0.0462	0.0165	0.9585
6.6121	0.37699	-3.421	-0.50004	1.1108	0.51693	-3.3678	-42.6854	759.1302	-58.6392	283.8658	81.7246	827.2542	-0.0592	0.0182	-0.0073	-0.0462	0.0165	0.9585
6.6249	0.66771	-2.0076	-0.39143	0.60795	0.52319	-1.9952	-40.9764	744.8307	-55.7951	278.7088	77.9907	809.0416	-0.0592	0.0182	-0.0073	-0.0462	0.0165	0.9585
6.6376	0.78279	-0.8103	-0.25624	0.17946	0.45018	-0.82792	-38.5722	732.7702	-53.1833	274.4288	74.2554	792.6255	-0.0592	0.0182	-0.0073	-0.0462	0.0165	0.9585
6.6503	0.78592	0.12216	-0.13291	-0.15575	0.3538	0.081378	-35.5967	724.2563	-50.925	271.5105	70.6811	779.4302	-0.0592	0.0182	-0.0073	-0.0462	0.0165	0.9585
6.663	0.73289	0.78734	-0.027232	-0.39575	0.25384	0.73266	-32.1615	720.0626	-49.0774	270.2369	67.3559	770.3259	-0.0592	0.0182	-0.0073	-0.0462	0.0165	0.9585
6.6757	0.65731	1.2219	0.042695	-0.5528	0.17372	1.1623	-28.3559	720.3485	-47.6972	270.6544	64.3502	765.5519	-0.0592	0.0182	-0.0073	-0.0462	0.0165	0.9585
6.6884	0.56966	1.4904	0.088157	-0.64609	0.10089	1.4406	-24.2532	724.6493	-46.7602	272.5749	61.6482	764.6825	-0.0592	0.0182	-0.0073	-0.0462	0.0165	0.9585
6.7011	0.4796	1.6196	0.10145	-0.68711	0.046341	1.5805	-19.9001	732.0117	-46.2475	275.6192	59.2284	766.7888	-0.0592	0.0182	-0.0073	-0.0462	0.0165	0.9585
6.7139	0.37352	1.6413	0.10068	-0.68578	-0.0063071	1.617	-15.3362	741.1269	-46.0816	279.2745	57.0149	770.5922	-0.0592	0.0182	-0.0073	-0.0462	0.0165	0.9585
6.7266	0.25985	1.5529	0.087557	-0.63994	-0.05342	1.5358	-10.6326	750.5073	-46.1932	282.968	54.9501	774.6586	-0.0592	0.0182	-0.0073	-0.0462	0.0165	0.9585
6.7393	0.13369	1.3193	0.081508	-0.53618	-0.11442	1.3016	-5.8626	758.7781	-46.48	286.1718	52.9574	777.6847	-0.0592	0.0182	-0.0073	-0.0462	0.0165	0.9585
6.752	-0.006389	0.8836	0.081335	-0.3553	-0.18486	0.8337	-1.1278	764.9059	-46.8631	288.4845	51.0013	778.7271	-0.0592	0.0182	-0.0073	-0.0462	0.0165	0.9585
6.7647	-0.16345	0.19035	0.099343	-0.077244	-0.27649	0.069854	3.4308	768.2934	-47.2743	289.6699	49.0743	777.2869	-0.0592	0.0182	-0.0073	-0.0462	0.0165	0.9585
6.7774	-0.31807	-0.8304	0.1207	0.32049	-0.36719	-1.0617	7.7008	768.8437	-47.7297	289.6749	47.2478	773.3671	-0.0592	0.0182	-0.0073	-0.0462	0.0165	0.9585
6.7901	-0.43933	-2.2021	0.14946	0.84452	-0.44597	-2.5897	11.589	766.9151	-48.2752	288.6201	45.6209	767.3995	-0.0592	0.0182	-0.0073	-0.0462	0.0165	0.9585
6.8029	-0.47988	-3.8685	0.16358	1.4708	-0.46837	-4.4484	15.0275	763.2154	-48.9915	286.7683	44.3155	760.1272	-0.0592	0.0182	-0.0073	-0.0462	0.0165	0.9585
6.8156	-0.34781	-5.6628	0.14657	2.1374	-0.3823	-6.4497	18.0286	758.7147	-49.9342	284.4908	43.4051	752.5124	-0.0592	0.0182	-0.0073	-0.0462	0.0165	0.9585
6.8283	0.056196	-7.2223	0.052638	2.712	-0.10413	-8.1882	20.6756	754.4255	-51.1376	282.1855	42.9151	745.5153	-0.0592	0.0182	-0.0073	-0.0462	0.0165	0.9585
6.841	0.86498	-7.9457	-0.14802	2.9729	0.4459	-8.9904	23.0714	751.1624	-52.5973	280.1845	42.8184	739.872	-0.0592	0.0182	-0.0073	-0.0462	0.0165	0.9585
6.8537	2.2045	-6.9293	-0.51005	2.584	1.37	-7.8252	25.3273	749.3301	-54.3046	278.6635	43.0771	735.9166	-0.0592	0.0182	-0.0073	-0.0462	0.0165	0.9585
6.8664	4.1843	-2.9564	-1.0586	1.0885	2.7336	-3.3213	27.5081	748.7482	-56.215	277.5754	43.6303	733.42	-0.0592	0.0182	-0.0073	-0.0462	0.0165	0.9585
6.8791	6.8349	5.4861	-1.8177	-2.0819	4.5701	6.2289	29.5999	748.6254	-58.2432	276.6398	44.3997	731.5821	-0.0592	0.0182	-0.0073	-0.0462	0.0165	0.9585
6.8919	10.0405	20.0216	-2.7608	-7.5323	6.8053	22.6623	31.5368	747.641	-60.2543	275.3739	45.2773	729.1207	-0.0592	0.0182	-0.0073	-0.0462	0.0165	0.9585
6.9046	13.4338	42.0772	-3.8079	-15.7925	9.2083	47.588	33.18	744.1063	-62.0376	273.1619	46.1068	724.4379	-0.0592	0.0182	-0.0073	-0.0462	0.0165	0.9585
6.9173	16.2824	72.3251	-4.7586	-27.1126	11.2782	81.7781	34.3413	736.2068	-63.3208	269.3534	46.6912	715.836	-0.0592	0.0182	-0.0073	-0.0462	0.0165	0.9585
6.93	17.4093	109.8837	-5.2819	-41.1637	12.1964	124.247	34.8203	722.3405	-63.8162	263.3813	46.8228	701.8401	-0.0592	0.0182	-0.0073	-0.0462	0.0165	0.9585
6.9427	15.6533	151.8119	-4.8574	-56.8198	10.9446	171.7493	34.4611	701.4182	-63.2966	254.8725	46.3384	681.4514	-0.0592	0.0182	-0.0073	-0.0462	0.0165	0.9585
